# xmcd
#
# Track frame offsets:
#	150
#	13572
#	33785
#	47470
#	64192
#	78792
#	99800
#	119402
#	133075
#	148782
#	165220
#
# Disc length: 2544 seconds
#
# Revision: 1
# Processed by: cddbd v1.5.2PL0 Copyright (c) Steve Scherf et al.
# Submitted via: audiograbber 1.83.01
#
DISCID=7d09ee0b
DTITLE=Susie Hopman - Susie Hopman
DYEAR=2000
DGENRE=Country
TTITLE0=I want one like that
TTITLE1=Let the sun fall down
TTITLE2=Trouble with Joe
TTITLE3=What your love does
TTITLE4=Baby I'm only lonely
TTITLE5=I am in love
TTITLE6=Standing too close to the moon
TTITLE7=Lonely people
TTITLE8=Forgive and forget
TTITLE9=Before I love you anymore
TTITLE10=Bonus track
EXTD=
EXTT0=
EXTT1=
EXTT2=
EXTT3=
EXTT4=
EXTT5=
EXTT6=
EXTT7=
EXTT8=
EXTT9=
EXTT10=
PLAYORDER=
